<mxfile host="app.diagrams.net" modified="2023-12-04T21:46:46.273Z" agent="Mozilla/5.0 (Windows NT 10.0; Win64; x64) AppleWebKit/537.36 (KHTML, like Gecko) Chrome/119.0.0.0 Safari/537.36" etag="G5KOTmNrrAmvm5YEDlBD" version="22.1.5" type="device">
  <diagram id="C5RBs43oDa-KdzZeNtuy" name="Page-1">
    <mxGraphModel dx="1138" dy="728" grid="1" gridSize="10" guides="1" tooltips="1" connect="1" arrows="1" fold="1" page="1" pageScale="1" pageWidth="1169" pageHeight="1654" math="0" shadow="0">
      <root>
        <mxCell id="WIyWlLk6GJQsqaUBKTNV-0" />
        <mxCell id="WIyWlLk6GJQsqaUBKTNV-1" parent="WIyWlLk6GJQsqaUBKTNV-0" />
        <mxCell id="zkfFHV4jXpPFQw0GAbJ--0" value="Video" style="swimlane;fontStyle=2;align=center;verticalAlign=top;childLayout=stackLayout;horizontal=1;startSize=26;horizontalStack=0;resizeParent=1;resizeLast=0;collapsible=1;marginBottom=0;rounded=0;shadow=0;strokeWidth=1;" parent="WIyWlLk6GJQsqaUBKTNV-1" vertex="1">
          <mxGeometry x="400" y="330" width="286" height="320" as="geometry">
            <mxRectangle x="230" y="140" width="160" height="26" as="alternateBounds" />
          </mxGeometry>
        </mxCell>
        <mxCell id="mpf0fvycKqzO--zQficO-0" value="- mDuration: int" style="text;align=left;verticalAlign=top;spacingLeft=4;spacingRight=4;overflow=hidden;rotatable=0;points=[[0,0.5],[1,0.5]];portConstraint=eastwest;rounded=0;shadow=0;html=0;" parent="zkfFHV4jXpPFQw0GAbJ--0" vertex="1">
          <mxGeometry y="26" width="286" height="26" as="geometry" />
        </mxCell>
        <mxCell id="mpf0fvycKqzO--zQficO-2" value="- mUploadDate: Date    &#xa;&#xa;" style="text;align=left;verticalAlign=top;spacingLeft=4;spacingRight=4;overflow=hidden;rotatable=0;points=[[0,0.5],[1,0.5]];portConstraint=eastwest;rounded=0;shadow=0;html=0;" parent="zkfFHV4jXpPFQw0GAbJ--0" vertex="1">
          <mxGeometry y="52" width="286" height="26" as="geometry" />
        </mxCell>
        <mxCell id="mpf0fvycKqzO--zQficO-3" value="- mNumberOfViews: int" style="text;align=left;verticalAlign=top;spacingLeft=4;spacingRight=4;overflow=hidden;rotatable=0;points=[[0,0.5],[1,0.5]];portConstraint=eastwest;rounded=0;shadow=0;html=0;" parent="zkfFHV4jXpPFQw0GAbJ--0" vertex="1">
          <mxGeometry y="78" width="286" height="26" as="geometry" />
        </mxCell>
        <mxCell id="mpf0fvycKqzO--zQficO-5" value="- mPremium: boolean" style="text;align=left;verticalAlign=top;spacingLeft=4;spacingRight=4;overflow=hidden;rotatable=0;points=[[0,0.5],[1,0.5]];portConstraint=eastwest;rounded=0;shadow=0;html=0;" parent="zkfFHV4jXpPFQw0GAbJ--0" vertex="1">
          <mxGeometry y="104" width="286" height="26" as="geometry" />
        </mxCell>
        <mxCell id="zkfFHV4jXpPFQw0GAbJ--4" value="" style="line;html=1;strokeWidth=1;align=left;verticalAlign=middle;spacingTop=-1;spacingLeft=3;spacingRight=3;rotatable=0;labelPosition=right;points=[];portConstraint=eastwest;" parent="zkfFHV4jXpPFQw0GAbJ--0" vertex="1">
          <mxGeometry y="130" width="286" height="8" as="geometry" />
        </mxCell>
        <mxCell id="rb94BAbtfD_KCoYx7G47-6" value="&amp;nbsp;+ Video(int, Date, boolean, String, String, String, int)" style="text;html=1;align=left;verticalAlign=middle;resizable=0;points=[];autosize=1;strokeColor=none;fillColor=none;" parent="zkfFHV4jXpPFQw0GAbJ--0" vertex="1">
          <mxGeometry y="138" width="286" height="30" as="geometry" />
        </mxCell>
        <mxCell id="rb94BAbtfD_KCoYx7G47-7" value="&amp;nbsp;+ getDuration(): int" style="text;html=1;align=left;verticalAlign=middle;resizable=0;points=[];autosize=1;strokeColor=none;fillColor=none;" parent="zkfFHV4jXpPFQw0GAbJ--0" vertex="1">
          <mxGeometry y="168" width="286" height="30" as="geometry" />
        </mxCell>
        <mxCell id="rb94BAbtfD_KCoYx7G47-8" value="&amp;nbsp;+ getUploadDate(): Date" style="text;html=1;align=left;verticalAlign=middle;resizable=0;points=[];autosize=1;strokeColor=none;fillColor=none;" parent="zkfFHV4jXpPFQw0GAbJ--0" vertex="1">
          <mxGeometry y="198" width="286" height="30" as="geometry" />
        </mxCell>
        <mxCell id="rb94BAbtfD_KCoYx7G47-11" value="&amp;nbsp;+ getNumberOfViews(): int" style="text;html=1;align=left;verticalAlign=middle;resizable=0;points=[];autosize=1;strokeColor=none;fillColor=none;" parent="zkfFHV4jXpPFQw0GAbJ--0" vertex="1">
          <mxGeometry y="228" width="286" height="30" as="geometry" />
        </mxCell>
        <mxCell id="rb94BAbtfD_KCoYx7G47-31" value="&amp;nbsp;+ getPremium(): boolean" style="text;html=1;align=left;verticalAlign=middle;resizable=0;points=[];autosize=1;strokeColor=none;fillColor=none;" parent="zkfFHV4jXpPFQw0GAbJ--0" vertex="1">
          <mxGeometry y="258" width="286" height="30" as="geometry" />
        </mxCell>
        <mxCell id="zkfFHV4jXpPFQw0GAbJ--6" value="UserAccount" style="swimlane;fontStyle=0;align=center;verticalAlign=top;childLayout=stackLayout;horizontal=1;startSize=26;horizontalStack=0;resizeParent=1;resizeLast=0;collapsible=1;marginBottom=0;rounded=0;shadow=0;strokeWidth=1;" parent="WIyWlLk6GJQsqaUBKTNV-1" vertex="1">
          <mxGeometry x="370" y="780" width="285" height="636" as="geometry">
            <mxRectangle x="130" y="380" width="160" height="26" as="alternateBounds" />
          </mxGeometry>
        </mxCell>
        <mxCell id="zkfFHV4jXpPFQw0GAbJ--7" value="# mThumbnail: String" style="text;align=left;verticalAlign=top;spacingLeft=4;spacingRight=4;overflow=hidden;rotatable=0;points=[[0,0.5],[1,0.5]];portConstraint=eastwest;" parent="zkfFHV4jXpPFQw0GAbJ--6" vertex="1">
          <mxGeometry y="26" width="285" height="26" as="geometry" />
        </mxCell>
        <mxCell id="zkfFHV4jXpPFQw0GAbJ--8" value="# mName: String" style="text;align=left;verticalAlign=top;spacingLeft=4;spacingRight=4;overflow=hidden;rotatable=0;points=[[0,0.5],[1,0.5]];portConstraint=eastwest;rounded=0;shadow=0;html=0;" parent="zkfFHV4jXpPFQw0GAbJ--6" vertex="1">
          <mxGeometry y="52" width="285" height="26" as="geometry" />
        </mxCell>
        <mxCell id="mpf0fvycKqzO--zQficO-18" value="# mJoinDate: Date" style="text;align=left;verticalAlign=top;spacingLeft=4;spacingRight=4;overflow=hidden;rotatable=0;points=[[0,0.5],[1,0.5]];portConstraint=eastwest;rounded=0;shadow=0;html=0;" parent="zkfFHV4jXpPFQw0GAbJ--6" vertex="1">
          <mxGeometry y="78" width="285" height="26" as="geometry" />
        </mxCell>
        <mxCell id="mpf0fvycKqzO--zQficO-19" value="# mFollowingChannels: ArrayList&lt;Channel&gt;" style="text;align=left;verticalAlign=top;spacingLeft=4;spacingRight=4;overflow=hidden;rotatable=0;points=[[0,0.5],[1,0.5]];portConstraint=eastwest;rounded=0;shadow=0;html=0;" parent="zkfFHV4jXpPFQw0GAbJ--6" vertex="1">
          <mxGeometry y="104" width="285" height="26" as="geometry" />
        </mxCell>
        <mxCell id="mpf0fvycKqzO--zQficO-21" value="# mPremium: boolean" style="text;align=left;verticalAlign=top;spacingLeft=4;spacingRight=4;overflow=hidden;rotatable=0;points=[[0,0.5],[1,0.5]];portConstraint=eastwest;rounded=0;shadow=0;html=0;" parent="zkfFHV4jXpPFQw0GAbJ--6" vertex="1">
          <mxGeometry y="130" width="285" height="26" as="geometry" />
        </mxCell>
        <mxCell id="mpf0fvycKqzO--zQficO-22" value="# mCurrentlyViewed: Media" style="text;align=left;verticalAlign=top;spacingLeft=4;spacingRight=4;overflow=hidden;rotatable=0;points=[[0,0.5],[1,0.5]];portConstraint=eastwest;rounded=0;shadow=0;html=0;" parent="zkfFHV4jXpPFQw0GAbJ--6" vertex="1">
          <mxGeometry y="156" width="285" height="26" as="geometry" />
        </mxCell>
        <mxCell id="mpf0fvycKqzO--zQficO-34" value="# mQueue: ArrayList&lt;Video&gt;" style="text;align=left;verticalAlign=top;spacingLeft=4;spacingRight=4;overflow=hidden;rotatable=0;points=[[0,0.5],[1,0.5]];portConstraint=eastwest;rounded=0;shadow=0;html=0;" parent="zkfFHV4jXpPFQw0GAbJ--6" vertex="1">
          <mxGeometry y="182" width="285" height="26" as="geometry" />
        </mxCell>
        <mxCell id="zkfFHV4jXpPFQw0GAbJ--9" value="" style="line;html=1;strokeWidth=1;align=left;verticalAlign=middle;spacingTop=-1;spacingLeft=3;spacingRight=3;rotatable=0;labelPosition=right;points=[];portConstraint=eastwest;" parent="zkfFHV4jXpPFQw0GAbJ--6" vertex="1">
          <mxGeometry y="208" width="285" height="8" as="geometry" />
        </mxCell>
        <mxCell id="rb94BAbtfD_KCoYx7G47-42" value="+ UserAccount(String, String, Date, boolean)" style="text;html=1;align=left;verticalAlign=middle;resizable=0;points=[];autosize=1;strokeColor=none;fillColor=none;" parent="zkfFHV4jXpPFQw0GAbJ--6" vertex="1">
          <mxGeometry y="216" width="285" height="30" as="geometry" />
        </mxCell>
        <mxCell id="rb94BAbtfD_KCoYx7G47-9" value="+ getThumbnail(): String" style="text;html=1;align=left;verticalAlign=middle;resizable=0;points=[];autosize=1;strokeColor=none;fillColor=none;" parent="zkfFHV4jXpPFQw0GAbJ--6" vertex="1">
          <mxGeometry y="246" width="285" height="30" as="geometry" />
        </mxCell>
        <mxCell id="rb94BAbtfD_KCoYx7G47-44" value="+ getName(): String" style="text;html=1;align=left;verticalAlign=middle;resizable=0;points=[];autosize=1;strokeColor=none;fillColor=none;" parent="zkfFHV4jXpPFQw0GAbJ--6" vertex="1">
          <mxGeometry y="276" width="285" height="30" as="geometry" />
        </mxCell>
        <mxCell id="rb94BAbtfD_KCoYx7G47-45" value="+ getJoinDate(): Date" style="text;html=1;align=left;verticalAlign=middle;resizable=0;points=[];autosize=1;strokeColor=none;fillColor=none;" parent="zkfFHV4jXpPFQw0GAbJ--6" vertex="1">
          <mxGeometry y="306" width="285" height="30" as="geometry" />
        </mxCell>
        <mxCell id="rb94BAbtfD_KCoYx7G47-46" value="+ getFollowingChannels(): ArrayList&amp;lt;Channel&amp;gt;&amp;nbsp;" style="text;html=1;align=left;verticalAlign=middle;resizable=0;points=[];autosize=1;strokeColor=none;fillColor=none;" parent="zkfFHV4jXpPFQw0GAbJ--6" vertex="1">
          <mxGeometry y="336" width="285" height="30" as="geometry" />
        </mxCell>
        <mxCell id="rb94BAbtfD_KCoYx7G47-47" value="+ getPremium(): boolean" style="text;html=1;align=left;verticalAlign=middle;resizable=0;points=[];autosize=1;strokeColor=none;fillColor=none;" parent="zkfFHV4jXpPFQw0GAbJ--6" vertex="1">
          <mxGeometry y="366" width="285" height="30" as="geometry" />
        </mxCell>
        <mxCell id="rb94BAbtfD_KCoYx7G47-48" value="+ getCurrentlyViewed(): Media" style="text;html=1;align=left;verticalAlign=middle;resizable=0;points=[];autosize=1;strokeColor=none;fillColor=none;" parent="zkfFHV4jXpPFQw0GAbJ--6" vertex="1">
          <mxGeometry y="396" width="285" height="30" as="geometry" />
        </mxCell>
        <mxCell id="rb94BAbtfD_KCoYx7G47-49" value="+ getQueue(): ArrayList&amp;lt;Video&amp;gt;" style="text;html=1;align=left;verticalAlign=middle;resizable=0;points=[];autosize=1;strokeColor=none;fillColor=none;" parent="zkfFHV4jXpPFQw0GAbJ--6" vertex="1">
          <mxGeometry y="426" width="285" height="30" as="geometry" />
        </mxCell>
        <mxCell id="rb94BAbtfD_KCoYx7G47-61" value="+ subscribe(Channel): void" style="text;html=1;align=left;verticalAlign=middle;resizable=0;points=[];autosize=1;strokeColor=none;fillColor=none;" parent="zkfFHV4jXpPFQw0GAbJ--6" vertex="1">
          <mxGeometry y="456" width="285" height="30" as="geometry" />
        </mxCell>
        <mxCell id="rb94BAbtfD_KCoYx7G47-62" value="+ unsubscribe(Channel): void" style="text;html=1;align=left;verticalAlign=middle;resizable=0;points=[];autosize=1;strokeColor=none;fillColor=none;" parent="zkfFHV4jXpPFQw0GAbJ--6" vertex="1">
          <mxGeometry y="486" width="285" height="30" as="geometry" />
        </mxCell>
        <mxCell id="rb94BAbtfD_KCoYx7G47-63" value="+ watchVideo(Video): void&amp;nbsp;" style="text;html=1;align=left;verticalAlign=middle;resizable=0;points=[];autosize=1;strokeColor=none;fillColor=none;" parent="zkfFHV4jXpPFQw0GAbJ--6" vertex="1">
          <mxGeometry y="516" width="285" height="30" as="geometry" />
        </mxCell>
        <mxCell id="rb94BAbtfD_KCoYx7G47-64" value="+ watchStream(Stream): void" style="text;html=1;align=left;verticalAlign=middle;resizable=0;points=[];autosize=1;strokeColor=none;fillColor=none;" parent="zkfFHV4jXpPFQw0GAbJ--6" vertex="1">
          <mxGeometry y="546" width="285" height="30" as="geometry" />
        </mxCell>
        <mxCell id="1GkujThw8DtiPwDJJVMA-0" value="+ stopWatchingStream(): void" style="text;html=1;align=left;verticalAlign=middle;resizable=0;points=[];autosize=1;strokeColor=none;fillColor=none;" vertex="1" parent="zkfFHV4jXpPFQw0GAbJ--6">
          <mxGeometry y="576" width="285" height="30" as="geometry" />
        </mxCell>
        <mxCell id="rb94BAbtfD_KCoYx7G47-65" value="+ addToQueue(Video): void" style="text;html=1;align=left;verticalAlign=middle;resizable=0;points=[];autosize=1;strokeColor=none;fillColor=none;" parent="zkfFHV4jXpPFQw0GAbJ--6" vertex="1">
          <mxGeometry y="606" width="285" height="30" as="geometry" />
        </mxCell>
        <mxCell id="mpf0fvycKqzO--zQficO-7" value="Stream" style="swimlane;fontStyle=2;align=center;verticalAlign=top;childLayout=stackLayout;horizontal=1;startSize=26;horizontalStack=0;resizeParent=1;resizeLast=0;collapsible=1;marginBottom=0;rounded=0;shadow=0;strokeWidth=1;" parent="WIyWlLk6GJQsqaUBKTNV-1" vertex="1">
          <mxGeometry x="860" y="317" width="240" height="268" as="geometry">
            <mxRectangle x="230" y="140" width="160" height="26" as="alternateBounds" />
          </mxGeometry>
        </mxCell>
        <mxCell id="mpf0fvycKqzO--zQficO-12" value="- mStartTime: Date   &#xa;" style="text;align=left;verticalAlign=top;spacingLeft=4;spacingRight=4;overflow=hidden;rotatable=0;points=[[0,0.5],[1,0.5]];portConstraint=eastwest;rounded=0;shadow=0;html=0;" parent="mpf0fvycKqzO--zQficO-7" vertex="1">
          <mxGeometry y="26" width="240" height="26" as="geometry" />
        </mxCell>
        <mxCell id="mpf0fvycKqzO--zQficO-13" value="- mNumberOfViewers: int" style="text;align=left;verticalAlign=top;spacingLeft=4;spacingRight=4;overflow=hidden;rotatable=0;points=[[0,0.5],[1,0.5]];portConstraint=eastwest;rounded=0;shadow=0;html=0;" parent="mpf0fvycKqzO--zQficO-7" vertex="1">
          <mxGeometry y="52" width="240" height="26" as="geometry" />
        </mxCell>
        <mxCell id="mpf0fvycKqzO--zQficO-16" value="" style="line;html=1;strokeWidth=1;align=left;verticalAlign=middle;spacingTop=-1;spacingLeft=3;spacingRight=3;rotatable=0;labelPosition=right;points=[];portConstraint=eastwest;" parent="mpf0fvycKqzO--zQficO-7" vertex="1">
          <mxGeometry y="78" width="240" height="8" as="geometry" />
        </mxCell>
        <mxCell id="rb94BAbtfD_KCoYx7G47-39" value="&amp;nbsp;+ Stream(Date, String, String, String, int)" style="text;html=1;align=left;verticalAlign=middle;resizable=0;points=[];autosize=1;strokeColor=none;fillColor=none;" parent="mpf0fvycKqzO--zQficO-7" vertex="1">
          <mxGeometry y="86" width="240" height="30" as="geometry" />
        </mxCell>
        <mxCell id="rb94BAbtfD_KCoYx7G47-41" value="&amp;nbsp;+ getStartTime(): Date" style="text;html=1;align=left;verticalAlign=middle;resizable=0;points=[];autosize=1;strokeColor=none;fillColor=none;" parent="mpf0fvycKqzO--zQficO-7" vertex="1">
          <mxGeometry y="116" width="240" height="30" as="geometry" />
        </mxCell>
        <mxCell id="rb94BAbtfD_KCoYx7G47-40" value="&amp;nbsp;+ getNumberOfViewers(): int" style="text;html=1;align=left;verticalAlign=middle;resizable=0;points=[];autosize=1;strokeColor=none;fillColor=none;" parent="mpf0fvycKqzO--zQficO-7" vertex="1">
          <mxGeometry y="146" width="240" height="30" as="geometry" />
        </mxCell>
        <mxCell id="mpf0fvycKqzO--zQficO-23" value="Media" style="swimlane;fontStyle=2;align=center;verticalAlign=top;childLayout=stackLayout;horizontal=1;startSize=26;horizontalStack=0;resizeParent=1;resizeLast=0;collapsible=1;marginBottom=0;rounded=0;shadow=0;strokeWidth=1;" parent="WIyWlLk6GJQsqaUBKTNV-1" vertex="1">
          <mxGeometry x="644" width="200" height="288" as="geometry">
            <mxRectangle x="230" y="140" width="160" height="26" as="alternateBounds" />
          </mxGeometry>
        </mxCell>
        <mxCell id="mpf0fvycKqzO--zQficO-24" value="# mThumbnail: String" style="text;align=left;verticalAlign=top;spacingLeft=4;spacingRight=4;overflow=hidden;rotatable=0;points=[[0,0.5],[1,0.5]];portConstraint=eastwest;" parent="mpf0fvycKqzO--zQficO-23" vertex="1">
          <mxGeometry y="26" width="200" height="26" as="geometry" />
        </mxCell>
        <mxCell id="mpf0fvycKqzO--zQficO-25" value="# mName: String" style="text;align=left;verticalAlign=top;spacingLeft=4;spacingRight=4;overflow=hidden;rotatable=0;points=[[0,0.5],[1,0.5]];portConstraint=eastwest;rounded=0;shadow=0;html=0;" parent="mpf0fvycKqzO--zQficO-23" vertex="1">
          <mxGeometry y="52" width="200" height="26" as="geometry" />
        </mxCell>
        <mxCell id="mpf0fvycKqzO--zQficO-26" value="# mDescription: String" style="text;align=left;verticalAlign=top;spacingLeft=4;spacingRight=4;overflow=hidden;rotatable=0;points=[[0,0.5],[1,0.5]];portConstraint=eastwest;rounded=0;shadow=0;html=0;" parent="mpf0fvycKqzO--zQficO-23" vertex="1">
          <mxGeometry y="78" width="200" height="26" as="geometry" />
        </mxCell>
        <mxCell id="mpf0fvycKqzO--zQficO-30" value="# mNumberOfLikes: int" style="text;align=left;verticalAlign=top;spacingLeft=4;spacingRight=4;overflow=hidden;rotatable=0;points=[[0,0.5],[1,0.5]];portConstraint=eastwest;rounded=0;shadow=0;html=0;" parent="mpf0fvycKqzO--zQficO-23" vertex="1">
          <mxGeometry y="104" width="200" height="26" as="geometry" />
        </mxCell>
        <mxCell id="mpf0fvycKqzO--zQficO-32" value="" style="line;html=1;strokeWidth=1;align=left;verticalAlign=middle;spacingTop=-1;spacingLeft=3;spacingRight=3;rotatable=0;labelPosition=right;points=[];portConstraint=eastwest;" parent="mpf0fvycKqzO--zQficO-23" vertex="1">
          <mxGeometry y="130" width="200" height="8" as="geometry" />
        </mxCell>
        <mxCell id="rb94BAbtfD_KCoYx7G47-33" value="&amp;nbsp;+ Media(String, String, String, int)" style="text;html=1;align=left;verticalAlign=middle;resizable=0;points=[];autosize=1;strokeColor=none;fillColor=none;" parent="mpf0fvycKqzO--zQficO-23" vertex="1">
          <mxGeometry y="138" width="200" height="30" as="geometry" />
        </mxCell>
        <mxCell id="rb94BAbtfD_KCoYx7G47-34" value="&amp;nbsp;+ getThumbnail(): String" style="text;html=1;align=left;verticalAlign=middle;resizable=0;points=[];autosize=1;strokeColor=none;fillColor=none;" parent="mpf0fvycKqzO--zQficO-23" vertex="1">
          <mxGeometry y="168" width="200" height="30" as="geometry" />
        </mxCell>
        <mxCell id="rb94BAbtfD_KCoYx7G47-37" value="&amp;nbsp;+ getName(): String" style="text;html=1;align=left;verticalAlign=middle;resizable=0;points=[];autosize=1;strokeColor=none;fillColor=none;" parent="mpf0fvycKqzO--zQficO-23" vertex="1">
          <mxGeometry y="198" width="200" height="30" as="geometry" />
        </mxCell>
        <mxCell id="rb94BAbtfD_KCoYx7G47-35" value="&amp;nbsp;+ getDescription(): String" style="text;html=1;align=left;verticalAlign=middle;resizable=0;points=[];autosize=1;strokeColor=none;fillColor=none;" parent="mpf0fvycKqzO--zQficO-23" vertex="1">
          <mxGeometry y="228" width="200" height="30" as="geometry" />
        </mxCell>
        <mxCell id="rb94BAbtfD_KCoYx7G47-36" value="&amp;nbsp;+ getNumberOfLikes(): int" style="text;html=1;align=left;verticalAlign=middle;resizable=0;points=[];autosize=1;strokeColor=none;fillColor=none;" parent="mpf0fvycKqzO--zQficO-23" vertex="1">
          <mxGeometry y="258" width="200" height="30" as="geometry" />
        </mxCell>
        <mxCell id="mpf0fvycKqzO--zQficO-35" value="Channel" style="swimlane;fontStyle=2;align=center;verticalAlign=top;childLayout=stackLayout;horizontal=1;startSize=26;horizontalStack=0;resizeParent=1;resizeLast=0;collapsible=1;marginBottom=0;rounded=0;shadow=0;strokeWidth=1;" parent="WIyWlLk6GJQsqaUBKTNV-1" vertex="1">
          <mxGeometry x="867" y="780" width="290" height="352" as="geometry">
            <mxRectangle x="230" y="140" width="160" height="26" as="alternateBounds" />
          </mxGeometry>
        </mxCell>
        <mxCell id="mpf0fvycKqzO--zQficO-36" value="- mFollowers: ArrayList&lt;UserAccount&gt;" style="text;align=left;verticalAlign=top;spacingLeft=4;spacingRight=4;overflow=hidden;rotatable=0;points=[[0,0.5],[1,0.5]];portConstraint=eastwest;rounded=0;shadow=0;html=0;" parent="mpf0fvycKqzO--zQficO-35" vertex="1">
          <mxGeometry y="26" width="290" height="26" as="geometry" />
        </mxCell>
        <mxCell id="mpf0fvycKqzO--zQficO-37" value="- mUploadedVideos: ArrayList&lt;Video&gt;" style="text;align=left;verticalAlign=top;spacingLeft=4;spacingRight=4;overflow=hidden;rotatable=0;points=[[0,0.5],[1,0.5]];portConstraint=eastwest;rounded=0;shadow=0;html=0;" parent="mpf0fvycKqzO--zQficO-35" vertex="1">
          <mxGeometry y="52" width="290" height="26" as="geometry" />
        </mxCell>
        <mxCell id="rb94BAbtfD_KCoYx7G47-4" value="- mStream: Stream" style="text;align=left;verticalAlign=top;spacingLeft=4;spacingRight=4;overflow=hidden;rotatable=0;points=[[0,0.5],[1,0.5]];portConstraint=eastwest;rounded=0;shadow=0;html=0;" parent="mpf0fvycKqzO--zQficO-35" vertex="1">
          <mxGeometry y="78" width="290" height="26" as="geometry" />
        </mxCell>
        <mxCell id="mpf0fvycKqzO--zQficO-38" value="" style="line;html=1;strokeWidth=1;align=left;verticalAlign=middle;spacingTop=-1;spacingLeft=3;spacingRight=3;rotatable=0;labelPosition=right;points=[];portConstraint=eastwest;" parent="mpf0fvycKqzO--zQficO-35" vertex="1">
          <mxGeometry y="104" width="290" height="8" as="geometry" />
        </mxCell>
        <mxCell id="rb94BAbtfD_KCoYx7G47-43" value="&amp;nbsp;+ Channel(int, String, String, Date, boolean, Media)&amp;nbsp;" style="text;html=1;align=left;verticalAlign=middle;resizable=0;points=[];autosize=1;strokeColor=none;fillColor=none;" parent="mpf0fvycKqzO--zQficO-35" vertex="1">
          <mxGeometry y="112" width="290" height="30" as="geometry" />
        </mxCell>
        <mxCell id="rb94BAbtfD_KCoYx7G47-50" value="&amp;nbsp;+ getFollowers(): ArrayList&amp;lt;UserAccount&amp;gt;" style="text;html=1;align=left;verticalAlign=middle;resizable=0;points=[];autosize=1;strokeColor=none;fillColor=none;" parent="mpf0fvycKqzO--zQficO-35" vertex="1">
          <mxGeometry y="142" width="290" height="30" as="geometry" />
        </mxCell>
        <mxCell id="rb94BAbtfD_KCoYx7G47-52" value="&amp;nbsp;+ getUploadedVideos(): ArrayList&amp;lt;Video&amp;gt;" style="text;html=1;align=left;verticalAlign=middle;resizable=0;points=[];autosize=1;strokeColor=none;fillColor=none;" parent="mpf0fvycKqzO--zQficO-35" vertex="1">
          <mxGeometry y="172" width="290" height="30" as="geometry" />
        </mxCell>
        <mxCell id="rb94BAbtfD_KCoYx7G47-51" value="&amp;nbsp;+ getStream(): Stream" style="text;html=1;align=left;verticalAlign=middle;resizable=0;points=[];autosize=1;strokeColor=none;fillColor=none;" parent="mpf0fvycKqzO--zQficO-35" vertex="1">
          <mxGeometry y="202" width="290" height="30" as="geometry" />
        </mxCell>
        <mxCell id="rb94BAbtfD_KCoYx7G47-57" value="&amp;nbsp;+ addVideo(Video): void" style="text;html=1;align=left;verticalAlign=middle;resizable=0;points=[];autosize=1;strokeColor=none;fillColor=none;" parent="mpf0fvycKqzO--zQficO-35" vertex="1">
          <mxGeometry y="232" width="290" height="30" as="geometry" />
        </mxCell>
        <mxCell id="rb94BAbtfD_KCoYx7G47-58" value="&amp;nbsp;+ deleteVideo(Video): void" style="text;html=1;align=left;verticalAlign=middle;resizable=0;points=[];autosize=1;strokeColor=none;fillColor=none;" parent="mpf0fvycKqzO--zQficO-35" vertex="1">
          <mxGeometry y="262" width="290" height="30" as="geometry" />
        </mxCell>
        <mxCell id="rb94BAbtfD_KCoYx7G47-59" value="&amp;nbsp;+ startStream(Video): void" style="text;html=1;align=left;verticalAlign=middle;resizable=0;points=[];autosize=1;strokeColor=none;fillColor=none;" parent="mpf0fvycKqzO--zQficO-35" vertex="1">
          <mxGeometry y="292" width="290" height="30" as="geometry" />
        </mxCell>
        <mxCell id="rb94BAbtfD_KCoYx7G47-60" value="&amp;nbsp;+ stopStream(): void" style="text;html=1;align=left;verticalAlign=middle;resizable=0;points=[];autosize=1;strokeColor=none;fillColor=none;" parent="mpf0fvycKqzO--zQficO-35" vertex="1">
          <mxGeometry y="322" width="290" height="30" as="geometry" />
        </mxCell>
        <mxCell id="rb94BAbtfD_KCoYx7G47-0" value="Extends" style="endArrow=block;endSize=16;endFill=0;html=1;rounded=0;exitX=0.5;exitY=0;exitDx=0;exitDy=0;entryX=0.5;entryY=1;entryDx=0;entryDy=0;" parent="WIyWlLk6GJQsqaUBKTNV-1" source="mpf0fvycKqzO--zQficO-7" target="mpf0fvycKqzO--zQficO-23" edge="1">
          <mxGeometry width="160" relative="1" as="geometry">
            <mxPoint x="970" y="268" as="sourcePoint" />
            <mxPoint x="1110" y="290" as="targetPoint" />
          </mxGeometry>
        </mxCell>
        <mxCell id="rb94BAbtfD_KCoYx7G47-2" value="Extends" style="endArrow=block;endSize=16;endFill=0;html=1;rounded=0;exitX=0.5;exitY=0;exitDx=0;exitDy=0;entryX=0.5;entryY=1;entryDx=0;entryDy=0;" parent="WIyWlLk6GJQsqaUBKTNV-1" source="zkfFHV4jXpPFQw0GAbJ--0" target="mpf0fvycKqzO--zQficO-23" edge="1">
          <mxGeometry width="160" relative="1" as="geometry">
            <mxPoint x="540" y="190" as="sourcePoint" />
            <mxPoint x="700" y="190" as="targetPoint" />
          </mxGeometry>
        </mxCell>
        <mxCell id="rb94BAbtfD_KCoYx7G47-3" value="Extends" style="endArrow=block;endSize=16;endFill=0;html=1;rounded=0;exitX=0.003;exitY=0.045;exitDx=0;exitDy=0;exitPerimeter=0;entryX=1.001;entryY=0.023;entryDx=0;entryDy=0;entryPerimeter=0;" parent="WIyWlLk6GJQsqaUBKTNV-1" target="zkfFHV4jXpPFQw0GAbJ--6" edge="1">
          <mxGeometry width="160" relative="1" as="geometry">
            <mxPoint x="867.0000000000001" y="793.8449999999999" as="sourcePoint" />
            <mxPoint x="660" y="790" as="targetPoint" />
          </mxGeometry>
        </mxCell>
        <mxCell id="rb94BAbtfD_KCoYx7G47-55" value="" style="endArrow=diamondThin;endFill=1;endSize=24;html=1;rounded=0;entryX=0.603;entryY=-0.004;entryDx=0;entryDy=0;exitX=0.75;exitY=1;exitDx=0;exitDy=0;entryPerimeter=0;" parent="WIyWlLk6GJQsqaUBKTNV-1" source="mpf0fvycKqzO--zQficO-7" target="mpf0fvycKqzO--zQficO-35" edge="1">
          <mxGeometry width="160" relative="1" as="geometry">
            <mxPoint x="1085" y="590" as="sourcePoint" />
            <mxPoint x="1030" y="680" as="targetPoint" />
          </mxGeometry>
        </mxCell>
        <mxCell id="rb94BAbtfD_KCoYx7G47-56" value="" style="endArrow=diamondThin;endFill=1;endSize=24;html=1;rounded=0;entryX=0.25;entryY=0;entryDx=0;entryDy=0;exitX=0.5;exitY=1;exitDx=0;exitDy=0;" parent="WIyWlLk6GJQsqaUBKTNV-1" source="zkfFHV4jXpPFQw0GAbJ--0" target="mpf0fvycKqzO--zQficO-35" edge="1">
          <mxGeometry width="160" relative="1" as="geometry">
            <mxPoint x="700" y="680" as="sourcePoint" />
            <mxPoint x="860" y="680" as="targetPoint" />
            <Array as="points">
              <mxPoint x="940" y="650" />
            </Array>
          </mxGeometry>
        </mxCell>
        <mxCell id="rb94BAbtfD_KCoYx7G47-66" value="1" style="text;html=1;strokeColor=none;fillColor=none;align=center;verticalAlign=middle;whiteSpace=wrap;rounded=0;" parent="WIyWlLk6GJQsqaUBKTNV-1" vertex="1">
          <mxGeometry x="900" y="730" width="60" height="30" as="geometry" />
        </mxCell>
        <mxCell id="rb94BAbtfD_KCoYx7G47-67" value="1" style="text;html=1;strokeColor=none;fillColor=none;align=center;verticalAlign=middle;whiteSpace=wrap;rounded=0;" parent="WIyWlLk6GJQsqaUBKTNV-1" vertex="1">
          <mxGeometry x="1000" y="730" width="60" height="30" as="geometry" />
        </mxCell>
        <mxCell id="rb94BAbtfD_KCoYx7G47-68" value="*" style="text;html=1;strokeColor=none;fillColor=none;align=center;verticalAlign=middle;whiteSpace=wrap;rounded=0;" parent="WIyWlLk6GJQsqaUBKTNV-1" vertex="1">
          <mxGeometry x="670" y="630" width="60" height="30" as="geometry" />
        </mxCell>
        <mxCell id="rb94BAbtfD_KCoYx7G47-69" value="*" style="text;html=1;strokeColor=none;fillColor=none;align=center;verticalAlign=middle;whiteSpace=wrap;rounded=0;" parent="WIyWlLk6GJQsqaUBKTNV-1" vertex="1">
          <mxGeometry x="1000" y="585" width="60" height="30" as="geometry" />
        </mxCell>
        <mxCell id="1GkujThw8DtiPwDJJVMA-4" value="«interface»&lt;br&gt;&lt;b&gt;UserInterface&lt;/b&gt;" style="html=1;whiteSpace=wrap;" vertex="1" parent="WIyWlLk6GJQsqaUBKTNV-1">
          <mxGeometry x="60" y="710" width="170" height="60" as="geometry" />
        </mxCell>
        <mxCell id="1GkujThw8DtiPwDJJVMA-5" value="+ search(Channel) : void&lt;br&gt;&lt;div&gt;+ getThumbnail(): String&lt;/div&gt;&lt;div&gt;+ getName(): String&lt;/div&gt;&lt;div&gt;+ getJoinDate(): Date&lt;/div&gt;&lt;div&gt;+ getFollowingChannels(): ArrayList&amp;lt;Channel&amp;gt;&lt;/div&gt;&lt;div&gt;+ getPremium(): boolean&lt;/div&gt;&lt;div&gt;+ getCurrentlyViewed(): Media&lt;/div&gt;&lt;div&gt;+ getQueue(): List&amp;lt;Media&amp;gt;&lt;/div&gt;" style="rounded=0;whiteSpace=wrap;html=1;align=left;" vertex="1" parent="WIyWlLk6GJQsqaUBKTNV-1">
          <mxGeometry x="60" y="770" width="170" height="200" as="geometry" />
        </mxCell>
        <mxCell id="1GkujThw8DtiPwDJJVMA-7" value="" style="endArrow=block;dashed=1;endFill=0;endSize=12;html=1;rounded=0;entryX=1;entryY=0.5;entryDx=0;entryDy=0;exitX=0;exitY=0.5;exitDx=0;exitDy=0;" edge="1" parent="WIyWlLk6GJQsqaUBKTNV-1" source="mpf0fvycKqzO--zQficO-18" target="1GkujThw8DtiPwDJJVMA-5">
          <mxGeometry width="160" relative="1" as="geometry">
            <mxPoint x="260" y="970" as="sourcePoint" />
            <mxPoint x="390" y="780" as="targetPoint" />
          </mxGeometry>
        </mxCell>
        <mxCell id="1GkujThw8DtiPwDJJVMA-9" value="implements" style="text;html=1;strokeColor=none;fillColor=none;align=center;verticalAlign=middle;whiteSpace=wrap;rounded=0;" vertex="1" parent="WIyWlLk6GJQsqaUBKTNV-1">
          <mxGeometry x="270" y="840" width="60" height="30" as="geometry" />
        </mxCell>
      </root>
    </mxGraphModel>
  </diagram>
</mxfile>
